<?xml version="1.0" standalone="no"?>
<!DOCTYPE svg PUBLIC "-//W3C//DTD SVG 20010904//EN"
 "http://www.w3.org/TR/2001/REC-SVG-20010904/DTD/svg10.dtd">
<svg version="1.0" xmlns="http://www.w3.org/2000/svg"
 width="48.000000pt" height="48.000000pt" viewBox="0 0 48.000000 48.000000"
 preserveAspectRatio="xMidYMid meet">

<g transform="translate(0.000000,48.000000) scale(0.100000,-0.100000)"
fill="#000000" stroke="none">
<path d="M160 360 l0 -70 -29 0 c-17 0 -32 -3 -35 -8 -2 -4 29 -43 70 -87 l74
-80 70 75 c38 41 69 81 70 88 0 7 -12 12 -30 12 l-30 0 0 70 0 70 -80 0 -80 0
0 -70z m130 -20 c0 -61 3 -72 19 -78 18 -6 16 -12 -25 -57 l-44 -50 -46 49
c-43 47 -44 50 -25 58 19 6 21 15 21 78 l0 70 50 0 50 0 0 -70z"/>
<path d="M57 164 c-12 -13 -7 -59 9 -82 15 -21 21 -22 170 -22 142 0 156 2
175 21 14 14 19 30 17 51 -4 46 -26 47 -30 1 l-3 -38 -155 0 -155 0 -3 30 c-4
33 -14 49 -25 39z"/>
</g>
</svg>
